HIERARCHY
ROOT Hips
{
	OFFSET 0.000000 0.000000 0.000000
	CHANNELS 6 Xposition Yposition Zposition Xrotation Yrotation Zrotation
	JOINT LeftUpLeg_virtual
	{
		OFFSET 0.000000 0.000000 0.000000
		CHANNELS 3 Xrotation Yrotation Zrotation
		JOINT LeftUpLeg
		{
			OFFSET 10.205400 -3.823500 0.155100
			CHANNELS 3 Xrotation Yrotation Zrotation
			JOINT LeftLeg
			{
				OFFSET 0.708757 -12.982077 0.567790
				CHANNELS 3 Xrotation Yrotation Zrotation
				JOINT LeftFoot
				{
					OFFSET -0.708756 -10.717838 -2.184338
					CHANNELS 3 Xrotation Yrotation Zrotation
					JOINT LeftToeBase
					{
						OFFSET 0.108149 -7.191104 7.560241
						CHANNELS 3 Xrotation Yrotation Zrotation
						JOINT LeftToe_End
						{
							OFFSET 0.070230 0.081724 4.490308
							CHANNELS 3 Xrotation Yrotation Zrotation
							End Site
							{
								OFFSET 0 0 0
							}
						}
					}
				}
			}
		}
	}
	JOINT RightUpLeg_virtual
	{
		OFFSET 0.000000 0.000000 0.000000
		CHANNELS 3 Xrotation Yrotation Zrotation
		JOINT RightUpLeg
		{
			OFFSET -10.205400 -3.823500 0.005500
			CHANNELS 3 Xrotation Yrotation Zrotation
			JOINT RightLeg
			{
				OFFSET -0.708756 -12.982134 0.610632
				CHANNELS 3 Xrotation Yrotation Zrotation
				JOINT RightFoot
				{
					OFFSET 0.708754 -10.717769 -1.945823
					CHANNELS 3 Xrotation Yrotation Zrotation
					JOINT RightToeBase
					{
						OFFSET -0.108140 -7.191069 7.372968
						CHANNELS 3 Xrotation Yrotation Zrotation
						JOINT RightToe_End
						{
							OFFSET -0.070227 0.081735 4.479403
							CHANNELS 3 Xrotation Yrotation Zrotation
							End Site
							{
								OFFSET 0 0 0
							}
						}
					}
				}
			}
		}
	}
	JOINT Spine_virtual
	{
		OFFSET 0.000000 0.000000 0.000000
		CHANNELS 3 Xrotation Yrotation Zrotation
		JOINT Spine
		{
			OFFSET 0.000000 6.876099 0.125700
			CHANNELS 3 Xrotation Yrotation Zrotation
			JOINT Spine1
			{
				OFFSET 0.000000 5.730043 0.104720
				CHANNELS 3 Xrotation Yrotation Zrotation
				JOINT Spine1_split
				{
					OFFSET 0.000000 5.730043 0.104720
					CHANNELS 3 Xrotation Yrotation Zrotation
					JOINT Spine2
					{
						OFFSET 0.000000 5.730043 0.104720
						CHANNELS 3 Xrotation Yrotation Zrotation
						JOINT Neck_virtual
						{
							OFFSET 0.000000 0.000000 0.000000
							CHANNELS 3 Xrotation Yrotation Zrotation
							JOINT Neck
							{
								OFFSET 0.000000 10.314075 0.188496
								CHANNELS 3 Xrotation Yrotation Zrotation
								JOINT Head
								{
									OFFSET 0.000000 7.643700 -2.377400
									CHANNELS 3 Xrotation Yrotation Zrotation
									JOINT HeadTop_End
									{
										OFFSET 0.000000 43.788605 -13.619600
										CHANNELS 3 Xrotation Yrotation Zrotation
										End Site
										{
											OFFSET 0 0 0
										}
									}
								}
							}
						}
						JOINT LeftShoulder_virtual
						{
							OFFSET 0.000000 0.000000 0.000000
							CHANNELS 3 Xrotation Yrotation Zrotation
							JOINT LeftShoulder
							{
								OFFSET 2.196100 4.412489 0.087492
								CHANNELS 3 Xrotation Yrotation Zrotation
								JOINT LeftShoulder_split
								{
									OFFSET 2.196100 4.412489 0.087492
									CHANNELS 3 Xrotation Yrotation Zrotation
									JOINT LeftArm
									{
										OFFSET 8.771219 -2.981674 -0.026999
										CHANNELS 3 Xrotation Yrotation Zrotation
										JOINT LeftForeArm
										{
											OFFSET 8.512804 0.000000 -0.000000
											CHANNELS 3 Xrotation Yrotation Zrotation
											JOINT LeftHand
											{
												OFFSET 18.484802 0.000000 -0.000000
												CHANNELS 3 Xrotation Yrotation Zrotation
												End Site
												{
													OFFSET 0 0 0
												}
											}
										}
									}
								}
							}
						}
						JOINT RightShoulder_virtual
						{
							OFFSET 0.000000 0.000000 0.000000
							CHANNELS 3 Xrotation Yrotation Zrotation
							JOINT RightShoulder
							{
								OFFSET -2.196100 4.412496 0.070690
								CHANNELS 3 Xrotation Yrotation Zrotation
								JOINT RightShoulder_split
								{
									OFFSET -2.196100 4.412496 0.070690
									CHANNELS 3 Xrotation Yrotation Zrotation
									JOINT RightArm
									{
										OFFSET -8.771282 -2.981682 -0.094208
										CHANNELS 3 Xrotation Yrotation Zrotation
										JOINT RightForeArm
										{
											OFFSET -8.494598 0.000000 0.000000
											CHANNELS 3 Xrotation Yrotation Zrotation
											JOINT RightHand
											{
												OFFSET -18.483803 0.000000 0.000001
												CHANNELS 3 Xrotation Yrotation Zrotation
												End Site
												{
													OFFSET 0 0 0
												}
											}
										}
									}
								}
							}
						}
					}
				}
			}
		}
	}
}
MOTION
Frames: 10
Frame Time: 0.03333333
1.105193 32.441730 2.616156 0.000000 0.000000 0.000000 -29.770664 -41.427474 -19.570217 3.175975 12.000377 3.263418 36.036061 1.254234 -3.461314 -19.645065 5.538586 3.872475 -5.581232 0.526509 0.322717 0.000000 0.000000 0.000000 -27.243558 -38.191798 -17.864937 26.257406 -10.966625 -3.479473 18.435966 11.113265 -5.487992 -24.581426 -14.709442 6.855049 -3.693533 -0.866985 -0.705266 0.000000 0.000000 0.000000 -29.292899 -40.259812 -19.763516 10.887189 -4.775389 0.837599 3.242462 -1.346528 0.027767 0.614966 1.046573 0.126255 0.000000 0.000000 0.000000 3.500084 -2.204969 0.029318 1.829976 1.899845 -3.416128 -6.624186 -1.219118 4.071810 0.000000 0.000000 0.000000 3.553058 -2.505143 0.160809 0.983794 -15.315173 -10.934164 0.665120 -1.185439 -0.525675 -20.868248 0.089167 -38.873759 2.302133 -67.741912 2.122648 0.000000 0.000000 0.000000 2.732008 -2.453803 0.115164 -0.003001 11.389554 16.191247 1.923636 3.664165 -2.090455 -10.232843 -7.281152 62.017291 -0.264852 42.289519 1.193557 0.000000 0.000000 0.000000 
1.372553 32.436180 3.022125 0.000000 0.000000 0.000000 -30.713783 -43.696484 -21.222393 4.718880 13.720810 3.602970 34.363464 1.215859 -5.455751 -20.764036 6.859574 8.161664 -5.589856 0.395553 0.733436 0.000000 0.000000 0.000000 -28.017451 -39.751148 -19.164543 25.093552 -11.115518 -4.234981 18.724016 11.203017 -6.492505 -22.643993 -14.516324 8.056306 -3.622641 -0.843448 -1.247761 0.000000 0.000000 0.000000 -30.296458 -41.946917 -21.195653 10.933476 -4.786406 0.779820 3.270817 -1.317198 -0.006937 0.554453 1.017230 0.130813 0.000000 0.000000 0.000000 3.453528 -2.181407 0.016790 1.922797 1.861411 -3.408182 -6.484594 -1.036253 3.833292 0.000000 0.000000 0.000000 3.563887 -2.467204 0.155969 1.008498 -15.481799 -10.967364 0.598060 -1.110015 -0.538844 -20.709934 0.097854 -38.815811 2.340994 -67.859425 2.127872 0.000000 0.000000 0.000000 2.814216 -2.398315 0.101978 0.028446 11.355515 16.212006 1.875321 3.737929 -1.998579 -10.206611 -7.346080 62.164550 -0.222059 42.198227 1.155085 0.000000 0.000000 0.000000 
1.619467 32.405251 3.430563 0.000000 0.000000 0.000000 -31.974636 -45.805834 -22.968073 6.039663 14.732448 3.681595 33.104735 1.130861 -7.079595 -21.957079 8.328996 11.467744 -5.368020 0.327388 0.839971 0.000000 0.000000 0.000000 -28.929242 -41.234146 -20.456430 23.932795 -11.037117 -4.966494 19.262124 10.578133 -7.462809 -21.049009 -14.665777 8.384990 -3.281636 -0.756054 -1.508828 0.000000 0.000000 0.000000 -31.519527 -43.517939 -22.720242 10.953578 -4.756756 0.643282 3.310790 -1.292706 -0.016528 0.523177 0.960792 0.168333 0.000000 0.000000 0.000000 3.444048 -2.169250 0.018945 2.029125 1.816923 -3.413722 -6.377312 -0.962996 3.643013 0.000000 0.000000 0.000000 3.630512 -2.445663 0.166543 1.055825 -15.587607 -10.925177 0.485825 -1.094751 -0.632561 -20.575439 0.092536 -38.810474 2.363704 -67.910570 2.137087 0.000000 0.000000 0.000000 2.934454 -2.356424 0.110203 0.048110 11.366699 16.223813 1.883345 3.775416 -1.895483 -10.086683 -7.401208 62.195996 -0.187577 42.332683 1.116697 0.000000 0.000000 0.000000 
1.833314 32.368252 3.815866 0.000000 0.000000 0.000000 -33.389885 -47.509454 -24.655166 7.059454 15.045479 3.490251 32.281687 1.038104 -8.194505 -23.020789 9.875254 13.689284 -4.833290 0.348572 0.586848 0.000000 0.000000 0.000000 -30.065530 -42.802524 -21.836070 22.818813 -10.700235 -5.506810 20.118985 9.270369 -8.344316 -19.728214 -15.069311 8.009073 -3.058980 -0.627319 -1.439403 0.000000 0.000000 0.000000 -32.942439 -45.002983 -24.313554 10.930936 -4.685199 0.444048 3.364736 -1.292256 0.002829 0.577872 0.857262 0.281706 0.000000 0.000000 0.000000 3.490140 -2.171555 0.044246 2.088190 1.757601 -3.409513 -6.396339 -0.995869 3.513049 0.000000 0.000000 0.000000 3.737327 -2.447392 0.192693 1.113182 -15.630804 -10.817653 0.389872 -1.108857 -0.767706 -20.565151 0.103305 -38.861703 2.394543 -67.961291 2.183678 0.000000 0.000000 0.000000 3.059710 -2.342620 0.136783 0.049577 11.405051 16.246028 1.933945 3.804863 -1.796194 -9.929253 -7.454486 62.075088 -0.182696 42.615203 1.093681 0.000000 0.000000 0.000000 
2.011631 32.343796 4.149251 0.000000 0.000000 0.000000 -34.900498 -48.875662 -26.325373 7.967151 14.980792 3.001606 31.710963 1.199600 -8.818977 -23.881801 11.391140 15.058037 -4.226924 0.441972 0.096277 0.000000 0.000000 0.000000 -31.401146 -44.503931 -23.330724 21.782561 -10.079158 -5.691528 21.292281 7.597915 -9.071112 -18.780739 -15.544409 7.361475 -3.315336 -0.486109 -1.088233 0.000000 0.000000 0.000000 -34.466501 -46.464998 -25.949581 10.884495 -4.582167 0.214445 3.410254 -1.313251 0.037375 0.641264 0.743338 0.382411 0.000000 0.000000 0.000000 3.587053 -2.186873 0.084133 2.060366 1.670841 -3.387081 -6.549456 -1.090512 3.455356 0.000000 0.000000 0.000000 3.851948 -2.462108 0.225635 1.163615 -15.614967 -10.689173 0.391863 -1.170069 -0.882365 -20.711191 0.124796 -38.973814 2.440413 -68.040248 2.277702 0.000000 0.000000 0.000000 3.162482 -2.356504 0.172866 0.030489 11.453606 16.310620 2.038566 3.882496 -1.724034 -9.795601 -7.501394 61.840348 -0.219492 42.937028 1.098056 0.000000 0.000000 0.000000 
2.186372 32.328049 4.438770 0.000000 0.000000 0.000000 -36.572968 -50.154830 -28.107596 8.775507 14.827326 2.306014 31.366011 1.629351 -9.066175 -24.508090 12.796989 15.694340 -3.758254 0.572636 -0.438281 0.000000 0.000000 0.000000 -33.055117 -46.346816 -25.062585 20.848828 -9.302144 -5.476417 22.969588 5.777318 -9.552071 -18.378905 -15.906602 6.673194 -4.013975 -0.379511 -0.512122 0.000000 0.000000 0.000000 -36.108471 -48.015786 -27.687854 10.836168 -4.465826 -0.029112 3.433074 -1.351738 0.068131 0.721539 0.582577 0.412111 0.000000 0.000000 0.000000 3.714252 -2.204596 0.126045 1.950340 1.586667 -3.346823 -6.778681 -1.198211 3.468264 0.000000 0.000000 0.000000 3.942686 -2.480536 0.251216 1.188498 -15.595682 -10.589009 0.510502 -1.238594 -0.916156 -20.974384 0.165180 -39.141919 2.486022 -68.116930 2.395336 0.000000 0.000000 0.000000 3.225789 -2.388418 0.201470 -0.004605 11.504631 16.414823 2.171219 4.035993 -1.677988 -9.713597 -7.550398 61.590684 -0.282800 43.171969 1.130666 0.000000 0.000000 0.000000 
2.349742 32.316742 4.669238 0.000000 0.000000 0.000000 -38.502135 -51.569451 -30.134433 9.540750 14.963572 1.619239 31.340350 2.192828 -9.195147 -24.947961 13.903785 15.740099 -3.531917 0.682362 -0.789417 0.000000 0.000000 0.000000 -35.047640 -48.355171 -27.108358 20.128118 -8.578497 -4.967779 25.259599 3.903021 -9.674802 -18.814402 -16.103009 5.787355 -4.672147 -0.332177 0.235445 0.000000 0.000000 0.000000 -37.896704 -49.617568 -29.573275 10.824869 -4.341225 -0.246292 3.429663 -1.386934 0.074555 0.768941 0.389425 0.390941 0.000000 0.000000 0.000000 3.841796 -2.214146 0.154876 1.804501 1.495899 -3.314157 -7.002723 -1.267798 3.523163 0.000000 0.000000 0.000000 3.984882 -2.491582 0.251450 1.182963 -15.598808 -10.542513 0.687623 -1.295954 -0.844215 -21.282943 0.204483 -39.354368 2.507546 -68.153376 2.492352 0.000000 0.000000 0.000000 3.251936 -2.415648 0.204878 -0.043986 11.560622 16.536673 2.306539 4.219626 -1.652840 -9.685949 -7.567506 61.424137 -0.348582 43.229889 1.177919 0.000000 0.000000 0.000000 
2.525631 32.297359 4.841117 0.000000 0.000000 0.000000 -41.022427 -53.341305 -32.718382 10.209636 15.474798 1.096043 31.761203 2.792119 -9.358086 -25.308149 14.705703 15.314006 -3.495764 0.750742 -0.848965 0.000000 0.000000 0.000000 -37.459250 -50.512118 -29.556664 19.694745 -8.170023 -4.403048 28.084693 2.038176 -9.338288 -20.025010 -16.271485 4.632642 -4.993495 -0.341071 1.021766 0.000000 0.000000 0.000000 -39.955251 -51.336607 -31.781061 10.861257 -4.210281 -0.426382 3.401251 -1.402139 0.054357 0.772733 0.230698 0.299816 0.000000 0.000000 0.000000 3.939668 -2.211851 0.158248 1.684342 1.415962 -3.307667 -7.131222 -1.272236 3.610132 0.000000 0.000000 0.000000 3.976067 -2.484922 0.224608 1.151046 -15.613901 -10.565248 0.852571 -1.326110 -0.690092 -21.556500 0.226633 -39.562457 2.493065 -68.118966 2.540661 0.000000 0.000000 0.000000 3.255552 -2.426611 0.176525 -0.082360 11.606692 16.639186 2.461512 4.396121 -1.662083 -9.727414 -7.555151 61.408715 -0.388183 43.153022 1.222647 0.000000 0.000000 0.000000 
2.712170 32.248337 4.978054 0.000000 0.000000 0.000000 -44.297820 -55.457858 -36.020369 10.687595 16.166465 0.855660 32.666776 3.299338 -9.648386 -25.834695 15.318870 14.679620 -3.408503 0.771491 -0.653232 0.000000 0.000000 0.000000 -40.388654 -52.820827 -32.550619 19.559382 -8.274580 -4.058734 31.131685 0.154775 -8.526025 -21.405342 -16.689472 3.642115 -5.452175 -0.440683 1.651966 0.000000 0.000000 0.000000 -42.334732 -53.151648 -34.352621 10.907006 -4.077849 -0.573527 3.366323 -1.397769 0.016662 0.747152 0.106074 0.208312 0.000000 0.000000 0.000000 3.992420 -2.201849 0.141408 1.641181 1.372354 -3.341118 -7.118967 -1.216483 3.695894 0.000000 0.000000 0.000000 3.938124 -2.470366 0.178492 1.104488 -15.636931 -10.643441 0.914395 -1.255321 -0.508127 -21.725858 0.243345 -39.706215 2.452325 -68.049216 2.535943 0.000000 0.000000 0.000000 3.246562 -2.423944 0.126194 -0.117334 11.636840 16.681940 2.622295 4.510410 -1.675344 -9.813644 -7.540554 61.537921 -0.384246 42.994542 1.255645 0.000000 0.000000 0.000000 
2.875345 32.198711 5.094350 0.000000 0.000000 0.000000 -48.243935 -57.664617 -40.000310 11.019199 16.881622 0.908407 33.863873 3.852466 -10.042204 -26.799267 15.934176 14.178756 -3.114315 0.765288 -0.328647 0.000000 0.000000 0.000000 -43.737868 -55.233650 -36.044281 19.893484 -8.964958 -4.085572 33.834879 -1.731681 -7.330769 -22.394138 -17.650793 3.132360 -6.364838 -0.605081 1.922037 0.000000 0.000000 0.000000 -45.138784 -55.045642 -37.377630 10.934499 -3.968274 -0.679264 3.351223 -1.373072 -0.021103 0.628981 0.120890 0.203326 0.000000 0.000000 0.000000 3.999205 -2.193680 0.110144 1.698599 1.368542 -3.424268 -6.960666 -1.113724 3.744025 0.000000 0.000000 0.000000 3.908478 -2.453264 0.124988 1.062124 -15.624616 -10.763201 0.829008 -1.116713 -0.337640 -21.762629 0.222933 -39.742029 2.425991 -67.998167 2.516806 0.000000 0.000000 0.000000 3.244983 -2.409066 0.071447 -0.146073 11.649109 16.651684 2.775579 4.521314 -1.691883 -9.946364 -7.563468 61.742513 -0.343886 42.840425 1.281249 0.000000 0.000000 0.000000 
